<svg version="1.1" width="98" height="98" viewBox="-1 -1 98 98" xmlns="http://www.w3.org/2000/svg" xmlns:xlink="http://www.w3.org/1999/xlink">
  <!-- Exported by Scratch - http://scratch.mit.edu/ -->
  <path id="ID0.04056702181696892" fill="#666666" stroke="#313131" stroke-width="7" stroke-linecap="round" d="M 81 256 L 170 256 L 170 345 L 81 345 L 81 256 Z " transform="matrix(1, 0, 0, 1, -76.75, -251.75)"/>
  <path id="ID0.4558837292715907" fill="none" stroke="#313131" stroke-width="7" stroke-linecap="round" d="M 350 136 C 350 136 348.424 143.971 348 148 C 347.756 150.318 347.670 152.692 348 155 C 348.343 157.400 348.465 160.124 350 162 C 351.700 164.078 354.698 164.619 357 166 C 359.694 167.616 362.083 169.833 365 171 C 367.186 171.875 369.725 171.393 372 172 C 374.749 172.733 377.480 173.680 380 175 C 384.503 177.359 389.292 179.524 393 183 C 394.850 184.735 395.641 187.489 396 190 C 396.659 194.615 396.692 199.390 396 204 C 395.669 206.209 393 210 393 210 " transform="matrix(1.3357301950454712, 0, 0, 1.1720958948135376, -457.2, -154.4)"/>
  <path id="ID0.4347038730047643" fill="none" stroke="#313131" stroke-width="7" stroke-linecap="round" d="M 377 173 C 377 173 384.051 169.527 387 167 C 388.823 165.437 389.926 163.148 391 161 C 392.272 158.455 392.860 155.607 394 153 C 395.194 150.271 396.305 147.449 398 145 C 399.340 143.064 400.927 141.116 403 140 C 405.418 138.698 411 138 411 138 " transform="matrix(1.2858160734176636, 0, 0, 1.1282964944839478, -440.05, -148.65)"/>
</svg>