<svg version="1.1" width="98" height="97" viewBox="-1 -1 98 97" xmlns="http://www.w3.org/2000/svg" xmlns:xlink="http://www.w3.org/1999/xlink">
  <!-- Exported by Scratch - http://scratch.mit.edu/ -->
  <path id="ID0.04056702181696892" fill="#995900" stroke="#663B00" stroke-width="7" stroke-linecap="round" d="M 81 256 L 170 256 L 170 345 L 81 345 L 81 256 Z " transform="matrix(1, 0, 0, 0.890625, -76.9, -214.65)"/>
  <path id="ID0.4558837292715907" fill="none" stroke="#663B00" stroke-width="7" stroke-linecap="round" d="M 347 156.900 C 347 156.900 346.901 159.795 346.800 161.600 C 346.735 163.037 345.818 165.230 347.150 165.900 C 348.810 166.721 350.810 164.013 352.600 164.400 C 355.126 164.951 357.640 166.015 359.500 168 C 361.211 169.833 361.469 172.488 362.150 175.050 C 363.020 178.323 361.838 182.304 364 185.050 C 366.468 188.175 370.622 190.296 374.700 190.400 C 378.226 190.486 380.284 185.651 383.850 185.050 C 387.671 184.410 392.044 185.221 395.250 187.400 C 397.734 189.102 399.820 192.780 399.550 195.950 C 399.269 199.109 395.722 200.977 394.500 203.850 C 393.506 205.732 393 210 393 210 " transform="matrix(1.3357301950454712, 0, 0, 1.1720958948135376, -457.3, -155.4)"/>
  <path id="ID0.4347038730047643" fill="none" stroke="#663B00" stroke-width="7" stroke-linecap="round" d="M 370.050 189.600 C 370.050 189.600 372.581 180.630 375.500 177.200 C 377.583 174.748 381.708 175.463 384.450 173.850 C 387.740 171.916 390.500 169.336 393 166.550 C 395.190 164.108 396.900 161.354 398.450 158.550 C 400.628 154.165 401.200 148.855 404.150 145.050 C 405.632 143.140 410.850 142.250 410.850 142.250 " transform="matrix(1.2858160734176636, 0, 0, 1.1282964944839478, -440.15, -149.65)"/>
  <path id="ID0.061100746504962444" fill="#009933" stroke="#006622" stroke-width="7" stroke-linecap="round" d="M 293.350 88.050 C 285.602 86.216 277.314 87.420 269.450 87.300 C 262.408 87.193 255.174 87.333 248.300 87.300 C 241.557 87.266 234.881 87.327 228.050 87.300 C 221.108 87.281 214.256 87.365 207.200 87.300 C 203.420 87.266 199.459 87.089 195.850 87.300 C 192.611 87.486 188.646 86.670 186.200 88.650 C 184.137 90.318 184.909 93.828 184.800 96.500 C 184.758 99.492 184.546 102.664 185.750 105.500 C 186.559 107.403 189.136 107.911 190.500 109.500 C 192.215 111.497 194.050 113.500 195 116 C 195.950 118.650 196 124.500 197 124 C 197 124 200.300 121.300 202 120 C 203.950 118.450 206.200 117.250 208 115.500 C 210.050 113.400 212.550 111.300 213.500 108.500 C 214.650 105 214 97.500 214 97.500 C 215 100 215.050 105.350 215.500 108 C 215.850 110.350 216.521 112.785 217.500 115 C 217.925 115.967 219.387 116.128 219.900 117 C 220.609 118.748 220.534 120.773 221 122.500 C 221.116 122.932 220.700 123 221 122.500 C 222.150 120.300 222.750 117.700 224.500 116 C 226.350 114.100 229.350 113.600 231.500 112 C 233.350 110.550 235.600 109.150 236.500 107 C 237.550 104.200 237 98 237 98 C 238 100.500 242.850 102.900 244.500 105 C 246 106.900 246.300 109.600 247 112 C 247.650 114.450 248.100 116.950 248.500 119.500 C 248.750 121.450 249 125.500 250.500 126 C 250.500 126 252.100 122.950 253 121.500 C 254.250 119.300 255.500 117.050 257 115 C 258.500 112.850 260.900 111.350 262 109 C 263.100 106.500 263.500 101 263.500 101 C 265.500 102.500 272 104 275 105.500 C 277.100 106.550 279.300 107.900 280.500 110 C 281.650 112.050 281.650 114.650 281.500 117 C 281.300 118.900 280.852 121.766 281.500 124 C 281.692 124.649 282.665 123.248 283.250 122.800 C 284.831 121.582 286.366 120.223 288 119 C 289.891 117.584 292.441 116.884 293.650 114.900 C 294.802 113.046 294.302 110.743 294.400 108.650 C 294.569 105.110 294.548 101.480 294.600 97.900 C 294.623 96.353 294.819 94.790 294.600 93.300 C 294.399 91.484 295.287 88.509 293.350 88.050 Z " transform="matrix(0.8154560327529907, 0, 0, 1, -146.85, -83.55)"/>
</svg>