<svg version="1.1" width="98" height="98" viewBox="-1 -1 98 98" xmlns="http://www.w3.org/2000/svg" xmlns:xlink="http://www.w3.org/1999/xlink">
  <!-- Exported by Scratch - http://scratch.mit.edu/ -->
  <path id="ID0.04056702181696892" fill="#DEB867" stroke="#DE9722" stroke-width="7" stroke-linecap="round" d="M 81 256 L 170 256 L 170 345 L 81 345 L 81 256 Z " transform="matrix(1, 0, 0, 1, -76.75, -251.75)"/>
  <path id="ID0.9512945944443345" fill="none" stroke="#DE9722" stroke-width="7" stroke-linecap="round" d="M 311.500 155.500 L 311.800 155.800 " transform="matrix(0.7652439475059509, 0, 0, 0.7652439475059509, -175.95, -29.5)"/>
  <path id="ID0.4543946320191026" fill="none" stroke="#DE9722" stroke-width="7" stroke-linecap="round" d="M 327 147.500 L 327.300 147.800 " transform="matrix(0.7652439475059509, 0, 0, 0.7652439475059509, -198.4, -75.75)"/>
  <path id="ID0.9868248300626874" fill="none" stroke="#DE9722" stroke-width="7" stroke-linecap="round" d="M 343 149 L 343.300 149.300 " transform="matrix(0.7652439475059509, 0, 0, 0.7652439475059509, -187.85, -76.5)"/>
  <path id="ID0.5693016047589481" fill="none" stroke="#DE9722" stroke-width="7" stroke-linecap="round" d="M 353 139 L 353.300 139.300 " transform="matrix(0.7652439475059509, 0, 0, 0.7652439475059509, -185.95, -16.75)"/>
  <path id="ID0.1743092592805624" fill="none" stroke="#DE9722" stroke-width="7" stroke-linecap="round" d="M 367 140.500 L 367.300 140.800 " transform="matrix(0.7652439475059509, 0, 0, 0.7652439475059509, -197.4, -55.25)"/>
  <path id="ID0.9724667277187109" fill="none" stroke="#DE9722" stroke-width="7" stroke-linecap="round" d="M 374.500 130 L 374.800 130.300 " transform="matrix(0.7652439475059509, 0, 0, 0.7652439475059509, -202.65, -78)"/>
  <path id="ID0.9868248300626874" fill="none" stroke="#DE9722" stroke-width="7" stroke-linecap="round" d="M 343 149 L 343.300 149.300 " transform="matrix(0.7652439475059509, 0, 0, 0.7652439475059509, -221.25, -62.3)"/>
  <path id="ID0.5693016047589481" fill="none" stroke="#DE9722" stroke-width="7" stroke-linecap="round" d="M 353 139 L 353.300 139.300 " transform="matrix(0.7652439475059509, 0, 0, 0.7652439475059509, -259.75, -69.3)"/>
  <path id="ID0.1743092592805624" fill="none" stroke="#DE9722" stroke-width="7" stroke-linecap="round" d="M 367 140.500 L 367.300 140.800 " transform="matrix(0.7652439475059509, 0, 0, 0.7652439475059509, -250.5, -69.55)"/>
  <path id="ID0.9868248300626874" fill="none" stroke="#DE9722" stroke-width="7" stroke-linecap="round" d="M 343 149 L 343.300 149.300 " transform="matrix(0.7652439475059509, 0, 0, 0.7652439475059509, -240.15, -24)"/>
  <path id="ID0.9868248300626874" fill="none" stroke="#DE9722" stroke-width="7" stroke-linecap="round" d="M 343 149 L 343.300 149.300 " transform="matrix(0.7460726499557495, -0.1702171266078949, 0.1702171266078949, 0.7460726499557495, -268.3, 30.4)"/>
  <path id="ID0.5693016047589481" fill="none" stroke="#DE9722" stroke-width="7" stroke-linecap="round" d="M 353 139 L 353.300 139.300 " transform="matrix(0.7460726499557495, -0.1702171266078949, 0.1702171266078949, 0.7460726499557495, -274.1, 22.55)"/>
  <path id="ID0.9868248300626874" fill="none" stroke="#DE9722" stroke-width="7" stroke-linecap="round" d="M 343 149 L 343.300 149.300 " transform="matrix(0.7460726499557495, -0.1702171266078949, 0.1702171266078949, 0.7460726499557495, -198, 23.5)"/>
  <path id="ID0.1743092592805624" fill="none" stroke="#DE9722" stroke-width="7" stroke-linecap="round" d="M 367 140.500 L 367.300 140.800 " transform="matrix(0.7460726499557495, -0.1702171266078949, 0.1702171266078949, 0.7460726499557495, -277.85, 10.05)"/>
  <path id="ID0.9512945944443345" fill="none" stroke="#DE9722" stroke-width="7" stroke-linecap="round" d="M 311.500 155.500 L 311.800 155.800 " transform="matrix(0.7460726499557495, -0.1702171266078949, 0.1702171266078949, 0.7460726499557495, -217.3, 27.05)"/>
  <path id="ID0.4543946320191026" fill="none" stroke="#DE9722" stroke-width="7" stroke-linecap="round" d="M 327 147.500 L 327.300 147.800 " transform="matrix(0.7460726499557495, -0.1702171266078949, 0.1702171266078949, 0.7460726499557495, -237.4, 28.9)"/>
  <path id="ID0.9868248300626874" fill="none" stroke="#DE9722" stroke-width="7" stroke-linecap="round" d="M 343 149 L 343.300 149.300 " transform="matrix(0.7460726499557495, -0.1702171266078949, 0.1702171266078949, 0.7460726499557495, -249.5, 13.4)"/>
  <path id="ID0.5693016047589481" fill="none" stroke="#DE9722" stroke-width="7" stroke-linecap="round" d="M 353 139 L 353.300 139.300 " transform="matrix(0.7460726499557495, -0.1702171266078949, 0.1702171266078949, 0.7460726499557495, -225.75, 8.05)"/>
  <path id="ID0.1743092592805624" fill="none" stroke="#DE9722" stroke-width="7" stroke-linecap="round" d="M 367 140.500 L 367.300 140.800 " transform="matrix(0.7460726499557495, -0.1702171266078949, 0.1702171266078949, 0.7460726499557495, -246.1, 41.15)"/>
  <path id="ID0.9724667277187109" fill="none" stroke="#DE9722" stroke-width="7" stroke-linecap="round" d="M 374.500 130 L 374.800 130.300 " transform="matrix(0.7460726499557495, -0.1702171266078949, 0.1702171266078949, 0.7460726499557495, -229.4, 32.3)"/>
  <path id="ID0.1743092592805624" fill="none" stroke="#DE9722" stroke-width="7" stroke-linecap="round" d="M 367 140.500 L 367.300 140.800 " transform="matrix(0.7460726499557495, -0.1702171266078949, 0.1702171266078949, 0.7460726499557495, -245.3, 23.9)"/>
  <path id="ID0.1743092592805624" fill="none" stroke="#DE9722" stroke-width="7" stroke-linecap="round" d="M 367 140.500 L 367.300 140.800 " transform="matrix(0.7460726499557495, -0.1702171266078949, 0.1702171266078949, 0.7460726499557495, -225.3, 40.75)"/>
  <path id="ID0.1743092592805624" fill="none" stroke="#DE9722" stroke-width="7" stroke-linecap="round" d="M 367 140.500 L 367.300 140.800 " transform="matrix(0.7460726499557495, -0.1702171266078949, 0.1702171266078949, 0.7460726499557495, -235.9, 34)"/>
  <path id="ID0.1743092592805624" fill="none" stroke="#DE9722" stroke-width="7" stroke-linecap="round" d="M 367 140.500 L 367.300 140.800 " transform="matrix(0.7460726499557495, -0.1702171266078949, 0.1702171266078949, 0.7460726499557495, -255.55, 33.8)"/>
  <path id="ID0.1743092592805624" fill="none" stroke="#DE9722" stroke-width="7" stroke-linecap="round" d="M 367 140.500 L 367.300 140.800 " transform="matrix(0.7460726499557495, -0.1702171266078949, 0.1702171266078949, 0.7460726499557495, -275.35, 34.3)"/>
  <path id="ID0.9724667277187109" fill="none" stroke="#DE9722" stroke-width="7" stroke-linecap="round" d="M 374.500 130 L 374.800 130.300 " transform="matrix(0.7652439475059509, 0, 0, 0.7652439475059509, -224.9, -78.35)"/>
  <path id="ID0.9724667277187109" fill="none" stroke="#DE9722" stroke-width="7" stroke-linecap="round" d="M 374.500 130 L 374.800 130.300 " transform="matrix(0.7652439475059509, 0, 0, 0.7652439475059509, -246.65, -79.2)"/>
  <path id="ID0.9724667277187109" fill="none" stroke="#DE9722" stroke-width="7" stroke-linecap="round" d="M 374.500 130 L 374.800 130.300 " transform="matrix(0.7652439475059509, 0, 0, 0.7652439475059509, -268.3, -79.1)"/>
</svg>